<svg xmlns="http://www.w3.org/2000/svg" viewBox="0 0 185.34 33.55"><defs><style>.cls-1{fill:#f26a21;}</style></defs><title>Asset 1</title><g id="Layer_2" data-name="Layer 2"><g id="Layer_1-2" data-name="Layer 1"><path class="cls-1" d="M14,33.55c-8.24,0-14-6.92-14-16.84S5.74,0,14.27,0a11.9,11.9,0,0,1,9,4.1A2.15,2.15,0,0,1,23.2,7L22,8.25a2.15,2.15,0,0,1-1.59.7h0a2.1,2.1,0,0,1-1.59-.72,5.85,5.85,0,0,0-4.55-2.15c-4.95,0-7.91,4-7.91,10.61,0,5.21,2.05,10.78,7.79,10.78,2.15,0,3.74-.8,5.48-2.75A2.15,2.15,0,0,1,21.18,24h.05a2.14,2.14,0,0,1,1.54.65L24,25.87A2.15,2.15,0,0,1,24,28.76,12.64,12.64,0,0,1,14,33.55Z"/><path class="cls-1" d="M2.14,16.71c0-9,4.9-14.57,12.13-14.57a9.72,9.72,0,0,1,7.34,3.37l-1.18,1.3a8,8,0,0,0-6.16-2.87c-6.2,0-10,4.92-10,12.75s3.85,12.92,9.93,12.92a9,9,0,0,0,7.08-3.46l1.18,1.22a10.46,10.46,0,0,1-8.42,4C7.05,31.41,2.14,25.7,2.14,16.71Z"/><path class="cls-1" d="M52.9,33a2.15,2.15,0,0,1-2-1.46l-2.78-8.23H40l-2.83,8.24a2.14,2.14,0,0,1-2,1.45h-2a2.15,2.15,0,0,1-2-2.86L41.06,2a2.14,2.14,0,0,1,2-1.44h2a2.14,2.14,0,0,1,2,1.44L57,30.18A2.15,2.15,0,0,1,55,33ZM46.08,17.4,45.25,15c-.4-1.18-.8-2.34-1.19-3.51-.38,1.16-.77,2.32-1.18,3.51L42,17.4Z"/><path class="cls-1" d="M43.08,2.66h2L55,30.89H52.9L47.28,14.27c-1.14-3.34-2.15-6.3-3.13-9.75H44c-1,3.45-2,6.41-3.13,9.75L35.14,30.89h-2ZM37.69,19.55H50.34v1.66H37.69Z"/><path class="cls-1" d="M83,33a2.16,2.16,0,0,1-1.88-1.11L71.32,14.1V30.89A2.14,2.14,0,0,1,69.18,33H67.31a2.14,2.14,0,0,1-2.14-2.15V2.66A2.14,2.14,0,0,1,67.31.51h2.11a2.15,2.15,0,0,1,1.87,1.11l9.82,17.83V2.66A2.15,2.15,0,0,1,83.26.51h1.86a2.15,2.15,0,0,1,2.15,2.15V30.89A2.15,2.15,0,0,1,85.12,33Z"/><path class="cls-1" d="M67.31,2.66h2.11l11,20,3,5.58h.09c-.07-2.72-.25-5.46-.25-8.2V2.66h1.86V30.89H83l-11-20L69,5.35h-.08c.06,2.75.25,5.31.25,8v17.5H67.31Z"/><path class="cls-1" d="M99.64,33a2.14,2.14,0,0,1-2.14-2.15V2.66A2.14,2.14,0,0,1,99.64.51h6.51c9.48,0,14.92,5.9,14.92,16.17S115.51,33,106.19,33Zm6.31-6c5.81,0,8.76-3.49,8.76-10.39S111.76,6.48,106,6.48h-2.19V27.07Z"/><path class="cls-1" d="M99.64,2.66h6.51c8.66,0,12.77,5.48,12.77,14s-4.11,14.21-12.73,14.21H99.64ZM106,29.22c7.6,0,10.9-5.18,10.9-12.54S113.55,4.33,106,4.33h-4.33V29.22Z"/><path class="cls-1" d="M132.25,33a2.14,2.14,0,0,1-2.14-2.15v-1.7a2.14,2.14,0,0,1,2.14-2.14h5.13V6.5h-5.13a2.14,2.14,0,0,1-2.14-2.14V2.66A2.14,2.14,0,0,1,132.25.51h16.51a2.14,2.14,0,0,1,2.14,2.15v1.7a2.14,2.14,0,0,1-2.14,2.14h-5.12V27.05h5.12a2.14,2.14,0,0,1,2.14,2.14v1.7A2.14,2.14,0,0,1,148.76,33Z"/><path class="cls-1" d="M132.25,29.19h7.27V4.36h-7.27V2.66h16.51v1.7h-7.27V29.19h7.27v1.7H132.25Z"/><path class="cls-1" d="M172.65,33.55c-7.59,0-12.69-6.78-12.69-16.87S165.06,0,172.65,0s12.69,6.7,12.69,16.68S180.24,33.55,172.65,33.55Zm0-27.47c-3.85,0-6.33,4.16-6.33,10.6s2.48,10.79,6.33,10.79S179,23.23,179,16.68,176.5,6.08,172.65,6.08Z"/><path class="cls-1" d="M162.1,16.68c0-9,4.39-14.54,10.55-14.54S183.2,7.72,183.2,16.68s-4.4,14.73-10.55,14.73S162.1,25.67,162.1,16.68Zm19,0c0-7.85-3.42-12.74-8.47-12.74s-8.48,4.89-8.48,12.74,3.43,12.93,8.48,12.93S181.12,24.56,181.12,16.68Z"/></g></g></svg>